C:\My Captures\DataSMARTClinic\0056~004 ID\0056~aa~STRATO3\Standing_ID_04_STRATO.mot
version=1
nRows=35
nColumns=10
inDegrees=yes

BTS OpenSim export

endheader
time	[P0]_force_vx	[P0]_force_vy	[P0]_force_vz	[P0]_force_px	[P0]_force_py	[P0]_force_pz	[P0]_torque_x	[P0]_torque_y	[P0]_torque_z
5.176000	2.90835738	570.26568604	15.01222610	0.85642540	0.00182338	0.19330457	0.00527224	-0.95754695	-0.00036850
5.180000	2.90908718	570.26586914	14.47426319	0.85642540	0.00182339	0.19328333	0.00593188	-1.07734942	-0.00041461
5.184000	2.90978885	570.00567627	15.01212597	0.85652721	0.00182397	0.19322322	0.00526124	-0.95554900	-0.00036773
5.188000	2.91124105	569.74194336	15.01202488	0.85638750	0.00182318	0.19329098	0.00527487	-0.95802462	-0.00036869
5.192000	2.37327480	569.74096680	15.01129436	0.85660827	0.00182439	0.19329190	0.00481456	-0.87442183	-0.00033651
5.196000	2.91052818	570.00415039	14.47416210	0.85652769	0.00182392	0.19335204	0.00436221	-0.79226655	-0.00030490
5.200000	2.91052818	570.00415039	14.47416210	0.85652769	0.00182392	0.19335204	0.00592614	-1.07630718	-0.00041421
5.204000	2.90979838	570.00396729	15.01212597	0.85652769	0.00182392	0.19337328	0.00526620	-0.95644963	-0.00036808
5.208000	2.91125798	570.00439453	13.93619919	0.85652769	0.00182393	0.19333081	0.00502215	-0.91212410	-0.00035102
5.212000	2.90979838	570.00396729	15.01212597	0.85652769	0.00182392	0.19337328	0.00526620	-0.95644963	-0.00036808
5.216000	2.90908718	570.26586914	14.47426319	0.85642540	0.00182339	0.19328333	0.00593188	-1.07734942	-0.00041461
5.220000	2.91124105	569.74194336	15.01202488	0.85638750	0.00182318	0.19329098	0.00527487	-0.95802462	-0.00036869
5.224000	1.83665085	569.47406006	15.01046181	0.85644561	0.00182347	0.19336091	0.00379506	-0.68925935	-0.00026526
5.228000	2.36884856	570.52270508	15.01159573	0.85630244	0.00182267	0.19338581	0.00581397	-1.05593467	-0.00040637
5.232000	2.90765548	570.52587891	14.47436333	0.85632372	0.00182280	0.19336462	0.00594257	-1.07929099	-0.00041536
5.236000	2.90979838	570.00396729	15.01212597	0.85652769	0.00182392	0.19337328	0.00526620	-0.95644963	-0.00036808
5.240000	2.90835738	570.26568604	15.01222610	0.85642540	0.00182338	0.19330457	0.00527224	-0.95754695	-0.00036850
5.244000	2.91124105	569.74194336	15.01202488	0.85638750	0.00182318	0.19329098	0.00527487	-0.95802462	-0.00036869
5.248000	2.90909648	570.26416016	14.47426224	0.85642588	0.00182333	0.19343334	0.00593683	-1.07825005	-0.00041496
5.252000	2.90979838	570.00396729	15.01212597	0.85652769	0.00182392	0.19337328	0.00526620	-0.95644963	-0.00036808
5.256000	2.37028956	570.26098633	15.01149464	0.85640460	0.00182321	0.19345453	0.00580773	-1.05480206	-0.00040593
5.260000	2.90979838	570.00396729	15.01212597	0.85652769	0.00182392	0.19337328	0.00526620	-0.95644963	-0.00036808
5.264000	2.91269445	569.47796631	15.01192284	0.85624599	0.00182237	0.19336002	0.00528870	-0.96053571	-0.00036965
5.268000	2.91194725	569.74639893	14.47406292	0.85687333	0.00182586	0.19327043	0.00589629	-1.07088602	-0.00041212
5.272000	2.91124105	569.74194336	15.01202488	0.85638750	0.00182318	0.19329098	0.00527487	-0.95802462	-0.00036869
5.276000	2.37328434	569.73919678	15.01129436	0.85660875	0.00182434	0.19344205	0.00481907	-0.87524199	-0.00033683
5.280000	2.91413546	569.21624756	15.01182270	0.85634834	0.00182291	0.19342887	0.00528266	-0.95943815	-0.00036923
5.284000	2.91700792	568.69451904	15.01162148	0.85655284	0.00182404	0.19341634	0.00526559	-0.95633751	-0.00036804
5.288000	2.91700792	568.69451904	15.01162148	0.85655284	0.00182404	0.19341634	0.00526559	-0.95633751	-0.00036804
5.292000	1.83808112	569.21429443	15.01036167	0.85654932	0.00182407	0.19327827	0.00534827	-0.97135490	-0.00037382
5.296000	2.37893081	568.69158936	15.01089096	0.85653150	0.00182392	0.19341631	0.00579623	-1.05271387	-0.00040513
5.300000	2.91556692	568.95623779	15.01172256	0.85645032	0.00182350	0.19334742	0.00527164	-0.95743752	-0.00036846
5.304000	2.91342282	569.47839355	14.47395992	0.85648865	0.00182366	0.19348992	0.00593379	-1.07769763	-0.00041474
5.308000	2.91269302	569.47821045	15.01192379	0.85648859	0.00182365	0.19351119	0.00527397	-0.95786119	-0.00036862
5.312000	2.37620211	569.20935059	15.01109028	0.85608357	0.00182139	0.19357938	0.00486602	-0.88376772	-0.00034011
